<svg width="32" height="32" viewBox="0 0 32 32" fill="none" xmlns="http://www.w3.org/2000/svg">
<g clip-path="url(#clip0_2066_1009)">
<path d="M5.625 2.875V3.8125H3.75V2.875C3.75 2.34994 4.16244 1.9375 4.6875 1.9375C5.21256 1.9375 5.625 2.34994 5.625 2.875Z" fill="white"/>
<path d="M13.125 2.875V3.8125H11.25V2.875C11.25 2.34994 11.6624 1.9375 12.1875 1.9375C12.7126 1.9375 13.125 2.34994 13.125 2.875Z" fill="white"/>
<path d="M24.375 9.4375V4.75C24.375 4.22494 23.9626 3.8125 23.4375 3.8125H20.625V6.625C20.625 7.14994 20.2126 7.5625 19.6875 7.5625C19.1624 7.5625 18.75 7.14994 18.75 6.625V3.8125H13.125V6.625C13.125 7.14994 12.7126 7.5625 12.1875 7.5625C11.6624 7.5625 11.25 7.14994 11.25 6.625V3.8125H5.625V6.625C5.625 7.14994 5.21256 7.5625 4.6875 7.5625C4.16244 7.5625 3.75 7.14994 3.75 6.625V3.8125H0.9375C0.412437 3.8125 0 4.22494 0 4.75V9.4375H24.375Z" fill="#939393"/>
<path d="M31.0629 24.4375C30.7885 24.4375 24.6926 24.0799 24.4028 11.3125H0.03125C0.359125 26.0933 8.10756 26.3125 8.43794 26.3125H31.0817C31.588 26.2937 32.0004 25.8812 32.0004 25.375C32.0004 24.8687 31.588 24.4375 31.0629 24.4375Z" fill="white"/>
<path d="M20.625 2.875V3.8125H18.75V2.875C18.75 2.34994 19.1624 1.9375 19.6875 1.9375C20.2126 1.9375 20.625 2.34994 20.625 2.875Z" fill="white"/>
<path d="M8.4375 28.1877C8.13288 28.1877 2.88713 28.0457 0 21.3242V29.1252C0 29.6434 0.419312 30.0627 0.9375 30.0627H23.4375C23.9557 30.0627 24.375 29.6434 24.375 29.1252V28.1877H8.4375Z" fill="#939393"/>
</g>
<defs>
<clipPath id="clip0_2066_1009">
<rect width="32" height="32" fill="white"/>
</clipPath>
</defs>
</svg>
