<svg width="64" height="64" viewBox="0 0 64 64" fill="none" xmlns="http://www.w3.org/2000/svg">
<g clip-path="url(#clip0_2066_996)">
<path d="M40.2286 56.8169C37.6719 57.9517 34.8819 58.5483 32.0005 58.5483C29.1192 58.5483 26.3296 57.9517 23.773 56.8169C22.918 57.9839 21.8237 58.9097 20.5742 59.544C24.0459 61.4136 27.9468 62.4068 32.0005 62.4068C36.0547 62.4068 39.9556 61.4136 43.4273 59.544C42.1773 58.9097 41.0831 57.9844 40.2286 56.8169Z" fill="#939393"/>
<path d="M45.9873 23.5703C46.1074 23.6851 46.2266 23.8013 46.3447 23.9194C48.001 25.5757 49.3345 27.4683 50.3159 29.5205C51.228 29.2744 52.1778 29.1441 53.1485 29.1441C53.5698 29.1441 53.9864 29.1709 54.3985 29.2183C53.1997 26.249 51.4053 23.5234 49.0728 21.1909C48.3115 20.4297 47.5073 19.7266 46.667 19.0815C46.8291 20.5913 46.6021 22.1294 45.9873 23.5703Z" fill="#939393"/>
<path d="M13.6846 29.5205C14.6665 27.4683 16 25.5757 17.6563 23.9194C17.7744 23.8013 17.8936 23.6851 18.0137 23.5703C17.3985 22.1294 17.1714 20.5913 17.334 19.0815C16.4937 19.7266 15.6895 20.4297 14.9282 21.1909C12.5962 23.5234 10.8013 26.249 9.60254 29.2183C10.0146 29.1709 10.4316 29.1441 10.8525 29.1441C11.8232 29.1441 12.773 29.2744 13.6846 29.5205Z" fill="#939393"/>
<path d="M21.8839 17.377C20.9161 19.0093 20.9014 20.9717 21.8443 22.6265C22.795 24.2955 24.5079 25.2925 26.4259 25.2925H37.5734C39.4918 25.2925 41.2042 24.2955 42.1554 22.6265C43.0983 20.9717 43.0832 19.0093 42.1159 17.377C40.9723 15.4483 39.3087 13.917 37.3673 12.918C38.3742 11.6866 38.9215 10.1587 38.9215 8.54689C38.9215 6.69777 38.2018 4.95948 36.8942 3.65235C35.587 2.34473 33.8488 1.625 31.9996 1.625C30.151 1.625 28.4127 2.34473 27.1051 3.65235C25.7979 4.95948 25.0777 6.69777 25.0777 8.54689C25.0777 10.1587 25.6256 11.6866 26.6324 12.918C24.691 13.917 23.0269 15.4483 21.8839 17.377Z" fill="white"/>
<path d="M21.008 54.0008C21.9508 52.346 21.9362 50.3841 20.9684 48.7518C19.8253 46.823 18.1613 45.2918 16.2199 44.2928C17.2267 43.0613 17.7745 41.5335 17.7745 39.9216C17.7745 38.0725 17.0543 36.3342 15.7467 35.0266C13.048 32.3284 8.65685 32.3284 5.95811 35.0266C4.65049 36.3342 3.93027 38.0725 3.93027 39.9212C3.93027 41.5335 4.47812 43.0613 5.48496 44.2928C3.54355 45.2913 1.87997 46.823 0.736413 48.7518C-0.231363 50.3836 -0.246011 52.346 0.696862 54.0008C1.64755 55.6702 3.36044 56.6668 5.27842 56.6668H16.4259C18.3444 56.6668 20.0573 55.6702 21.008 54.0008Z" fill="white"/>
<path d="M58.5161 44.2926C59.5224 43.0612 60.0703 41.5333 60.0703 39.9215C60.0703 38.0724 59.35 36.3341 58.0429 35.027C55.3442 32.3282 50.9526 32.3282 48.2538 35.027C46.9462 36.3341 46.2265 38.0724 46.2265 39.9215C46.2265 41.5333 46.7738 43.0612 47.7807 44.2926C45.8393 45.2917 44.1757 46.8229 43.0321 48.7516C42.0648 50.384 42.0497 52.3464 42.9926 54.0012C43.9438 55.6701 45.6567 56.6667 47.5741 56.6667H58.7216C60.6396 56.6667 62.3525 55.6701 63.3037 54.0012C64.2465 52.3464 64.2314 50.384 63.2641 48.7516C62.1211 46.8229 60.4575 45.2917 58.5161 44.2926Z" fill="white"/>
</g>
<defs>
<clipPath id="clip0_2066_996">
<rect width="64" height="64" fill="white"/>
</clipPath>
</defs>
</svg>
