<svg width="32" height="32" viewBox="0 0 32 32" fill="none" xmlns="http://www.w3.org/2000/svg">
<path d="M20.75 13.186H26.375V7.76221L20.75 9.16846V13.186Z" fill="white"/>
<path d="M30.8 0.0362006L11.925 5.6612C11.4188 5.81126 11.1376 6.33626 11.2876 6.82383C11.4375 7.33001 11.9626 7.61126 12.4501 7.46126L15.0001 6.69576V11.3113H0.9375C0.419312 11.3113 0 11.7306 0 12.2488V17.8738C0 18.392 0.419312 18.8113 0.9375 18.8113H32V0.936326C32 0.636263 31.8687 0.355076 31.625 0.186263C31.3812 -0.00123687 31.0812 -0.0387994 30.8 0.0362006ZM3.75 16.9363H1.875V13.1863H3.75V16.9363ZM7.5 16.9363H5.625V13.1863H7.5V16.9363ZM11.25 16.9363H9.375V13.1863H11.25V16.9363ZM15 16.9363H13.125V13.1863H15V16.9363ZM28.25 14.1238C28.25 14.642 27.8307 15.0613 27.3125 15.0613H19.8125C19.2943 15.0613 18.875 14.642 18.875 14.1238V8.43626C18.875 8.00595 19.168 7.63151 19.5854 7.52714L27.0854 5.65214C27.3628 5.57983 27.6604 5.64389 27.8892 5.82245C28.1172 6.00008 28.2499 6.27289 28.2499 6.56126V14.1238H28.25Z" fill="#939393"/>
<path d="M22.625 20.686H24.5V31.9985H22.625V20.686Z" fill="white"/>
<path d="M26.375 20.686H28.25V31.9985H26.375V20.686Z" fill="white"/>
<path d="M3.75 30.1235H0.9375C0.412437 30.1235 0 30.536 0 31.061C0 31.586 0.412437 31.9985 0.9375 31.9985H7.5V23.4985C7.5 22.9803 7.91931 22.561 8.4375 22.561H15.9375C16.4557 22.561 16.875 22.9803 16.875 23.4985V31.9985H20.75V20.686H3.75V30.1235Z" fill="white"/>
<path d="M30.125 31.9988H31.0625C31.5876 31.9988 32 31.5862 32 31.0613C32 30.7676 32 20.2809 32 20.6863H30.125V31.9988Z" fill="white"/>
<path d="M14.0625 26.311H15V24.436H9.375V31.9985H15V28.186H14.0625C13.5443 28.186 13.125 27.7667 13.125 27.2485C13.125 26.7303 13.5443 26.311 14.0625 26.311Z" fill="white"/>
</svg>

