<svg width="64" height="64" viewBox="0 0 64 64" fill="none" xmlns="http://www.w3.org/2000/svg">
<g clip-path="url(#clip0_2066_990)">
<path d="M55.3425 0.142812C54.6417 -0.147438 53.8353 0.0129368 53.2991 0.549312L52.8701 0.978312C49.1096 4.73881 44.2405 6.98706 39 7.42119V21.3291C44.2405 21.7632 49.1096 24.0114 52.8703 27.7721L53.2993 28.2011C53.658 28.5598 54.1375 28.7503 54.6255 28.7503C54.867 28.7503 55.1106 28.7037 55.3426 28.6076C56.0432 28.3173 56.5001 27.6337 56.5001 26.8753V1.87531C56.5 1.11669 56.0431 0.433062 55.3425 0.142812Z" fill="#939393"/>
<path d="M14.375 41.5C18.8623 41.5 22.5 37.8623 22.5 33.375C22.5 28.8877 18.8623 25.25 14.375 25.25C9.88769 25.25 6.25 28.8877 6.25 33.375C6.25 37.8623 9.88769 41.5 14.375 41.5Z" fill="#939393"/>
<path d="M60.25 8.44727V20.3033C62.4651 19.248 64 16.9878 64 14.3753C64 11.7628 62.4651 9.50252 60.25 8.44727Z" fill="#939393"/>
<path d="M35.25 25.7527V7.5H31.875C28.0841 7.5 25 10.5841 25 14.375C25 18.04 27.8829 21.044 31.5 21.2394V25.7527C30.3795 26.4012 29.625 27.612 29.625 28.9999V40.2499H24.0524C21.8978 43.274 18.3629 45.2499 14.375 45.2499C11.4662 45.2499 8.799 44.198 6.73212 42.4556C2.69087 45.0027 0 49.5051 0 54.6249V62.1249C0 63.1604 0.8395 63.9999 1.875 63.9999H26.875C27.9105 63.9999 28.75 63.1604 28.75 62.1249V54.6249C28.75 52.1361 28.114 49.7934 26.9964 47.7499H31.5C34.6066 47.7499 37.125 45.2315 37.125 42.1249V28.9999C37.125 27.6121 36.3705 26.4012 35.25 25.7527Z" fill="white"/>
</g>
<defs>
<clipPath id="clip0_2066_990">
<rect width="64" height="64" fill="white"/>
</clipPath>
</defs>
</svg>
