<svg width="162" height="202" viewBox="0 0 162 202" fill="none" xmlns="http://www.w3.org/2000/svg">
<path d="M1 199.364C0.447715 199.364 0 199.811 0 200.364C0 200.916 0.447715 201.364 1 201.364V200.364V199.364ZM161.707 8.07088C162.098 7.68035 162.098 7.04719 161.707 6.65666L155.343 0.292702C154.953 -0.0978227 154.319 -0.0978227 153.929 0.292702C153.538 0.683226 153.538 1.31639 153.929 1.70692L159.586 7.36377L153.929 13.0206C153.538 13.4111 153.538 14.0443 153.929 14.4348C154.319 14.8254 154.953 14.8254 155.343 14.4348L161.707 8.07088ZM5.25 201.364C5.80228 201.364 6.25 200.916 6.25 200.364C6.25 199.811 5.80228 199.364 5.25 199.364V200.364V201.364ZM13.75 199.364C13.1977 199.364 12.75 199.811 12.75 200.364C12.75 200.916 13.1977 201.364 13.75 201.364V200.364V199.364ZM22.25 201.364C22.8023 201.364 23.25 200.916 23.25 200.364C23.25 199.811 22.8023 199.364 22.25 199.364V200.364V201.364ZM30.75 199.364C30.1977 199.364 29.75 199.811 29.75 200.364C29.75 200.916 30.1977 201.364 30.75 201.364V200.364V199.364ZM39.9996 201.122C40.5493 201.068 40.9515 200.579 40.898 200.03C40.8446 199.48 40.3556 199.078 39.8059 199.131L39.9028 200.126L39.9996 201.122ZM49.2292 197.266C48.7006 197.426 48.402 197.985 48.5621 198.513C48.7223 199.042 49.2805 199.34 49.8091 199.18L49.5192 198.223L49.2292 197.266ZM59.0462 195.35C59.533 195.089 59.7163 194.483 59.4555 193.997C59.1948 193.51 58.5887 193.326 58.1019 193.587L58.574 194.469L59.0462 195.35ZM66.0853 188.243C65.6586 188.594 65.5969 189.224 65.9475 189.651C66.2981 190.077 66.9283 190.139 67.355 189.788L66.7201 189.016L66.0853 188.243ZM74.4247 182.719C74.7753 182.292 74.7135 181.662 74.2868 181.311C73.8601 180.961 73.2299 181.022 72.8793 181.449L73.652 182.084L74.4247 182.719ZM78.2234 173.466C77.9627 173.952 78.1459 174.559 78.6328 174.819C79.1196 175.08 79.7257 174.897 79.9865 174.41L79.1049 173.938L78.2234 173.466ZM83.8164 165.173C83.9765 164.644 83.6778 164.086 83.1493 163.926C82.6207 163.766 82.0624 164.064 81.9023 164.593L82.8593 164.883L83.8164 165.173ZM83.7674 155.17C83.7139 155.719 84.1161 156.208 84.6658 156.262C85.2155 156.315 85.7045 155.913 85.758 155.363L84.7627 155.267L83.7674 155.17ZM86 145.714C86 145.161 85.5523 144.714 85 144.714C84.4477 144.714 84 145.161 84 145.714H85H86ZM84 136.414C84 136.966 84.4477 137.414 85 137.414C85.5523 137.414 86 136.966 86 136.414H85H84ZM86 127.114C86 126.561 85.5523 126.114 85 126.114C84.4477 126.114 84 126.561 84 127.114H85H86ZM84 117.814C84 118.366 84.4477 118.814 85 118.814C85.5523 118.814 86 118.366 86 117.814H85H84ZM86 108.514C86 107.961 85.5523 107.514 85 107.514C84.4477 107.514 84 107.961 84 108.514H85H86ZM84 99.2138C84 99.7661 84.4477 100.214 85 100.214C85.5523 100.214 86 99.7661 86 99.2138H85H84ZM86 89.9138C86 89.3615 85.5523 88.9138 85 88.9138C84.4477 88.9138 84 89.3615 84 89.9138H85H86ZM84 80.6138C84 81.1661 84.4477 81.6138 85 81.6138C85.5523 81.6138 86 81.1661 86 80.6138H85H84ZM86 71.3138C86 70.7615 85.5523 70.3138 85 70.3138C84.4477 70.3138 84 70.7615 84 71.3138H85H86ZM84 62.0138C84 62.5661 84.4477 63.0138 85 63.0138C85.5523 63.0138 86 62.5661 86 62.0138H85H84ZM86.2326 52.5579C86.2861 52.0082 85.8839 51.5192 85.3342 51.4657C84.7845 51.4122 84.2955 51.8145 84.242 52.3642L85.2373 52.461L86.2326 52.5579ZM86.1836 42.5547C86.0235 43.0832 86.3221 43.6415 86.8507 43.8017C87.3793 43.9618 87.9376 43.6631 88.0977 43.1346L87.1407 42.8446L86.1836 42.5547ZM91.7766 34.2619C92.0373 33.7751 91.854 33.169 91.3672 32.9082C90.8804 32.6475 90.2743 32.8307 90.0135 33.3176L90.8951 33.7897L91.7766 34.2619ZM95.5753 25.0088C95.2247 25.4355 95.2864 26.0657 95.7132 26.4163C96.1399 26.7669 96.77 26.7052 97.1206 26.2784L96.348 25.6436L95.5753 25.0088ZM103.915 19.4844C104.341 19.1338 104.403 18.5037 104.052 18.0769C103.702 17.6502 103.072 17.5885 102.645 17.9391L103.28 18.7118L103.915 19.4844ZM110.954 12.3773C110.467 12.6381 110.284 13.2441 110.544 13.731C110.805 14.2178 111.411 14.4011 111.898 14.1403L111.426 13.2588L110.954 12.3773ZM120.771 10.4615C121.299 10.3013 121.598 9.74304 121.438 9.21448C121.278 8.68592 120.719 8.38726 120.191 8.54739L120.481 9.50443L120.771 10.4615ZM130 6.60579C129.451 6.65929 129.048 7.14826 129.102 7.69795C129.155 8.24764 129.644 8.64988 130.194 8.59638L130.097 7.60109L130 6.60579ZM141.5 8.36377C142.052 8.36377 142.5 7.91605 142.5 7.36377C142.5 6.81148 142.052 6.36377 141.5 6.36377V7.36377V8.36377ZM154.5 6.36377C153.948 6.36377 153.5 6.81148 153.5 7.36377C153.5 7.91605 153.948 8.36377 154.5 8.36377V7.36377V6.36377ZM1 200.364V201.364H5.25V200.364V199.364H1V200.364ZM13.75 200.364V201.364H22.25V200.364V199.364H13.75V200.364ZM30.75 200.364V201.364H35V200.364V199.364H30.75V200.364ZM35 200.364V201.364C36.6866 201.364 38.3544 201.282 39.9996 201.122L39.9028 200.126L39.8059 199.131C38.225 199.285 36.6218 199.364 35 199.364V200.364ZM49.5192 198.223L49.8091 199.18C53.0351 198.203 56.1257 196.914 59.0462 195.35L58.574 194.469L58.1019 193.587C55.2963 195.09 52.3276 196.327 49.2292 197.266L49.5192 198.223ZM66.7201 189.016L67.355 189.788C69.9356 187.668 72.3043 185.299 74.4247 182.719L73.652 182.084L72.8793 181.449C70.8417 183.929 68.5653 186.206 66.0853 188.243L66.7201 189.016ZM79.1049 173.938L79.9865 174.41C81.5507 171.49 82.839 168.399 83.8164 165.173L82.8593 164.883L81.9023 164.593C80.9636 167.691 79.7262 170.66 78.2234 173.466L79.1049 173.938ZM84.7627 155.267L85.758 155.363C85.9181 153.718 86 152.05 86 150.364H85H84C84 151.986 83.9212 153.589 83.7674 155.17L84.7627 155.267ZM85 150.364H86V145.714H85H84V150.364H85ZM85 136.414H86V127.114H85H84V136.414H85ZM85 117.814H86V108.514H85H84V117.814H85ZM85 99.2138H86V89.9138H85H84V99.2138H85ZM85 80.6138H86V71.3138H85H84V80.6138H85ZM85 62.0138H86V57.3638H85H84V62.0138H85ZM85 57.3638H86C86 55.7419 86.0788 54.1388 86.2326 52.5579L85.2373 52.461L84.242 52.3642C84.0819 54.0093 84 55.6771 84 57.3638H85ZM87.1407 42.8446L88.0977 43.1346C89.0364 40.0362 90.2738 37.0675 91.7766 34.2619L90.8951 33.7897L90.0135 33.3176C88.4493 36.238 87.161 39.3287 86.1836 42.5547L87.1407 42.8446ZM96.348 25.6436L97.1206 26.2784C99.1583 23.7984 101.435 21.522 103.915 19.4844L103.28 18.7118L102.645 17.9391C100.064 20.0594 97.6956 22.4282 95.5753 25.0088L96.348 25.6436ZM111.426 13.2588L111.898 14.1403C114.704 12.6376 117.672 11.4002 120.771 10.4615L120.481 9.50443L120.191 8.54739C116.965 9.52477 113.874 10.8131 110.954 12.3773L111.426 13.2588ZM130.097 7.60109L130.194 8.59638C131.775 8.44253 133.378 8.36377 135 8.36377V7.36377V6.36377C133.313 6.36377 131.646 6.44568 130 6.60579L130.097 7.60109ZM135 7.36377V8.36377H141.5V7.36377V6.36377H135V7.36377ZM154.5 7.36377V8.36377H161V7.36377V6.36377H154.5V7.36377Z" fill="#717171"/>
</svg>
