<svg width="32" height="32" viewBox="0 0 32 32" fill="none" xmlns="http://www.w3.org/2000/svg">
<path d="M23.8933 23.1733C23.758 23.4991 23.499 23.758 23.1733 23.8933C23.013 23.9617 22.8408 23.9979 22.6666 24H9.33325C8.97963 24 8.64049 23.8595 8.39044 23.6095C8.14039 23.3594 7.99992 23.0203 7.99992 22.6667C7.99992 22.313 8.14039 21.9739 8.39044 21.7239C8.64049 21.4738 8.97963 21.3333 9.33325 21.3333H19.4533L8.38659 10.28C8.26161 10.156 8.16242 10.0086 8.09473 9.8461C8.02704 9.68362 7.99219 9.50935 7.99219 9.33333C7.99219 9.15732 8.02704 8.98304 8.09473 8.82057C8.16242 8.65809 8.26161 8.51062 8.38659 8.38667C8.51054 8.2617 8.658 8.1625 8.82048 8.09481C8.98296 8.02712 9.15724 7.99227 9.33325 7.99227C9.50927 7.99227 9.68354 8.02712 9.84602 8.09481C10.0085 8.1625 10.156 8.2617 10.2799 8.38667L21.3333 19.4533V9.33333C21.3333 8.97971 21.4737 8.64057 21.7238 8.39052C21.9738 8.14048 22.313 8 22.6666 8C23.0202 8 23.3593 8.14048 23.6094 8.39052C23.8594 8.64057 23.9999 8.97971 23.9999 9.33333V22.6667C23.9978 22.8409 23.9616 23.013 23.8933 23.1733Z" fill="white"/>
</svg>
