<svg width="49" height="103" viewBox="0 0 49 103" fill="none" xmlns="http://www.w3.org/2000/svg">
<path d="M37.9148 94.974C38.1945 89.6432 33.6918 82.5416 30.3712 78.5473C29.5716 80.5008 28.5619 87.9473 33.8335 92.6163C28.0743 90.2072 19.4081 91.1361 17.8086 91.6304C23.8581 96.4602 32.9347 98.7176 37.9148 94.974Z" fill="white"/>
<path d="M28.4397 88.8308C29.5952 84.0034 26.5966 76.2086 24.2621 72.0751C23.0715 73.9447 20.7569 80.6146 25.2059 86.1171C19.6393 82.415 11.4869 81.9728 9.99024 82.1142C14.8984 87.9993 23.2369 91.4826 28.4453 88.8324L28.4397 88.8308Z" fill="white"/>
<path d="M20.0715 80.8605C22.1009 76.5658 20.8372 68.4391 19.4544 64.3356C16.6637 67.271 15.0518 73.0626 17.7371 77.9301C12.8924 73.1047 5.65343 71.1692 4.05312 70.9664C7.6176 77.7915 14.936 82.3039 20.0715 80.8605Z" fill="white"/>
<path d="M13.6125 71.4628C16.3177 67.9857 16.9489 60.1252 16.2713 55.7693C14.3433 57.2213 10.1334 62.0288 12.1436 68.5267C8.63052 63.0023 2.87915 59.9521 0.56007 59.1759C2.74121 66.6918 8.97482 71.7689 13.611 71.4684L13.6125 71.4628Z" fill="white"/>
<path d="M9.39469 61.1998C12.69 58.4154 14.2922 50.6676 14.5632 47.2939C11.3519 48.678 8.11576 52.122 8.25098 56.6619C6.58877 52.5052 1.7443 48.1385 0 46.9729C0.203904 54.8729 5.35233 60.6694 9.38911 61.1983L9.39469 61.1998Z" fill="white"/>
<path d="M7.32514 49.8851C10.2029 48.4924 14.4307 43.0287 15.8346 38.1268C11.5446 39.1124 7.96559 42.2534 7.27265 47.4287C6.76433 43.0242 5.2581 38.5174 1.56641 34.6947C0.142264 41.7054 3.53177 48.4465 7.32363 49.8906L7.32514 49.8851Z" fill="white"/>
<path d="M8.17525 38.8628C11.0574 38.2634 16.2077 34.0963 18.3884 29.1404C14.0054 29.612 10.3575 32.0194 8.61529 36.7982C9.04866 32.6354 8.72911 28.5271 5.44566 23.8938C3.11348 30.0586 5.17509 36.8507 8.17525 38.8628Z" fill="white"/>
<path d="M11.2403 28.2305C13.9656 28.1597 19.5246 25.0403 22.2129 20.2899C17.925 20.3707 14.3797 22.0976 11.8935 26.5702C13.1085 22.051 12.953 18.3513 10.5732 13.967C7.54815 19.6609 9.03312 26.1928 11.2388 28.2361L11.2403 28.2305Z" fill="white"/>
<path d="M15.8379 18.1577C18.0766 18.4173 23.8638 16.3911 27.0202 11.728C22.8244 11.4948 19.5217 12.7525 16.5658 16.8157C18.4814 11.9953 18.2581 8.71758 16.6158 4.75098C13.1483 9.87033 14.1175 16.1826 15.8379 18.1577Z" fill="white"/>
<path d="M38.1455 84.1979C37.7165 86.2 38.172 94.1456 44.093 97.8679C37.5592 96.4901 29.1423 99.2447 27.8508 99.9727C35.5152 103.967 45.0678 104.182 49 99.5777C48.0022 93.8292 42.5769 87.9922 38.1439 84.2034L38.1455 84.1979Z" fill="white"/>
<path d="M20.6583 10.4452C25.1229 9.82932 27.6441 4.48493 28.1838 0C23.5797 1.45292 19.3048 6.14723 20.6583 10.4452Z" fill="white"/>
</svg>
