<svg width="32" height="32" viewBox="0 0 32 32" fill="none" xmlns="http://www.w3.org/2000/svg">
<g clip-path="url(#clip0_2066_1022)">
<path d="M27.381 17.0825H24.9062C25.1585 17.7731 25.2963 18.5185 25.2963 19.2953V28.6484C25.2963 28.9723 25.2399 29.2832 25.1374 29.5723H29.2287C30.757 29.5723 32.0003 28.3289 32.0003 26.8007V21.7018C32.0004 19.1548 29.9281 17.0825 27.381 17.0825Z" fill="#939393"/>
<path d="M6.70408 19.2953C6.70408 18.5184 6.84189 17.7731 7.09414 17.0825H4.61938C2.07225 17.0825 0 19.1548 0 21.7019V26.8007C0 28.329 1.24331 29.5724 2.77163 29.5724H6.86301C6.76045 29.2831 6.70408 28.9723 6.70408 28.6484V19.2953Z" fill="#939393"/>
<path d="M18.8288 14.6758H13.1711C10.624 14.6758 8.55176 16.748 8.55176 19.2952V28.6483C8.55176 29.1585 8.96538 29.5722 9.47563 29.5722H22.5243C23.0345 29.5722 23.4482 29.1586 23.4482 28.6483V19.2952C23.4482 16.748 21.3759 14.6758 18.8288 14.6758Z" fill="white"/>
<path d="M15.9997 2.42773C12.9365 2.42773 10.4443 4.91986 10.4443 7.98318C10.4443 10.061 11.5912 11.8757 13.2848 12.8284C14.0881 13.2803 15.0142 13.5386 15.9997 13.5386C16.9852 13.5386 17.9114 13.2803 18.7147 12.8284C20.4084 11.8757 21.5551 10.0609 21.5551 7.98318C21.5551 4.91993 19.063 2.42773 15.9997 2.42773Z" fill="#939393"/>
<path d="M6.24454 7.60547C3.9536 7.60547 2.08984 9.46922 2.08984 11.7602C2.08984 14.0511 3.9536 15.9149 6.24454 15.9149C6.82566 15.9149 7.37904 15.7945 7.88173 15.5781C8.75086 15.2039 9.46748 14.5415 9.91092 13.7119C10.2222 13.1295 10.3992 12.4652 10.3992 11.7602C10.3992 9.46928 8.53548 7.60547 6.24454 7.60547Z" fill="white"/>
<path d="M25.7553 7.60547C23.4643 7.60547 21.6006 9.46922 21.6006 11.7602C21.6006 12.4653 21.7776 13.1296 22.0889 13.7119C22.5323 14.5416 23.249 15.204 24.1181 15.5781C24.6208 15.7945 25.1742 15.9149 25.7553 15.9149C28.0462 15.9149 29.91 14.0511 29.91 11.7602C29.91 9.46922 28.0462 7.60547 25.7553 7.60547Z" fill="white"/>
</g>
<defs>
<clipPath id="clip0_2066_1022">
<rect width="32" height="32" fill="white"/>
</clipPath>
</defs>
</svg>
