<svg width="32" height="32" viewBox="0 0 32 32" fill="none" xmlns="http://www.w3.org/2000/svg">
<path d="M23.8933 8.82667C23.758 8.50087 23.499 8.24197 23.1733 8.10667C23.013 8.03835 22.8408 8.00211 22.6666 8H9.33325C8.97963 8 8.64049 8.14048 8.39044 8.39052C8.14039 8.64057 7.99992 8.97971 7.99992 9.33333C7.99992 9.68696 8.14039 10.0261 8.39044 10.2761C8.64049 10.5262 8.97963 10.6667 9.33325 10.6667H19.4533L8.38659 21.72C8.26161 21.844 8.16242 21.9914 8.09473 22.1539C8.02704 22.3164 7.99219 22.4907 7.99219 22.6667C7.99219 22.8427 8.02704 23.017 8.09473 23.1794C8.16242 23.3419 8.26161 23.4894 8.38659 23.6133C8.51054 23.7383 8.658 23.8375 8.82048 23.9052C8.98296 23.9729 9.15724 24.0077 9.33325 24.0077C9.50927 24.0077 9.68354 23.9729 9.84602 23.9052C10.0085 23.8375 10.156 23.7383 10.2799 23.6133L21.3333 12.5467V22.6667C21.3333 23.0203 21.4737 23.3594 21.7238 23.6095C21.9738 23.8595 22.313 24 22.6666 24C23.0202 24 23.3593 23.8595 23.6094 23.6095C23.8594 23.3594 23.9999 23.0203 23.9999 22.6667V9.33333C23.9978 9.1591 23.9616 8.98696 23.8933 8.82667Z" fill="white"/>
</svg>
